<?xml version="1.0" standalone="no"?>
<!DOCTYPE svg PUBLIC "-//W3C//DTD SVG 20010904//EN"
 "http://www.w3.org/TR/2001/REC-SVG-20010904/DTD/svg10.dtd">
<svg version="1.0" xmlns="http://www.w3.org/2000/svg"
 width="1080.000000pt" height="1080.000000pt" viewBox="0 0 1080.000000 1080.000000"
 preserveAspectRatio="xMidYMid meet">

<g transform="translate(0.000000,1080.000000) scale(0.100000,-0.100000)"
fill="#000000" stroke="none">
<path d="M0 5400 l0 -5400 5400 0 5400 0 0 5400 0 5400 -5400 0 -5400 0 0
-5400z m5019 3361 c20 -5 77 -19 126 -31 150 -37 302 -117 460 -244 l35 -29
68 30 c168 76 300 105 470 104 393 0 759 -213 949 -551 19 -35 37 -53 58 -60
121 -40 301 -190 390 -325 l54 -82 65 -7 c150 -15 326 -80 466 -171 100 -65
264 -230 324 -327 164 -265 213 -598 131 -883 -18 -61 -24 -106 -24 -180 0
-243 -92 -467 -262 -635 -37 -36 -90 -82 -118 -101 -28 -19 -51 -37 -51 -41 0
-5 176 -8 390 -8 l390 0 0 -55 0 -55 -1275 0 -1275 0 0 -393 0 -392 148 -147
147 -147 150 137 c108 98 149 142 148 157 -1 11 -5 46 -9 78 -18 154 110 266
266 232 164 -36 216 -264 85 -372 -61 -51 -139 -63 -231 -37 -17 4 -51 -21
-173 -132 -83 -75 -151 -140 -151 -143 0 -3 106 -112 235 -241 l235 -235 0
-497 0 -498 38 -19 c205 -106 135 -412 -95 -411 -227 1 -294 306 -90 411 l37
19 0 468 0 467 -430 430 -430 431 0 417 0 417 -187 -2 -188 -3 -3 -448 -2
-449 430 -435 430 -436 0 -81 0 -81 50 -27 c102 -57 140 -185 84 -289 -103
-189 -387 -132 -402 81 -7 102 32 171 127 222 29 16 31 21 31 70 0 52 -1 53
-72 125 -40 40 -77 73 -83 73 -6 0 -25 -15 -41 -33 -16 -18 -80 -85 -141 -149
l-113 -116 0 -179 0 -178 48 -26 c103 -57 142 -181 89 -285 -30 -59 -48 -76
-107 -103 -59 -27 -114 -26 -175 3 -91 42 -131 112 -123 217 5 75 44 134 111
169 l47 25 0 209 0 209 143 142 c78 77 151 151 161 163 l20 23 -312 312 -312
312 -2 480 -3 480 -152 3 -153 3 0 -603 0 -602 175 -176 175 -176 0 -372 0
-372 -55 0 -55 0 0 347 0 346 -112 114 c-62 62 -116 113 -120 113 -4 0 -8
-267 -8 -594 l0 -594 30 -12 c51 -21 81 -51 106 -104 69 -148 -30 -305 -194
-306 -29 0 -69 7 -88 15 -89 37 -146 152 -124 245 14 57 72 130 120 150 l30
12 0 599 c0 330 -4 599 -8 599 -4 0 -61 -53 -125 -118 l-117 -119 0 -346 0
-347 -55 0 -55 0 0 372 0 372 180 181 180 181 0 597 0 597 -155 0 -155 0 0
-477 0 -478 -317 -317 -318 -318 168 -168 167 -168 0 -206 0 -206 45 -27 c151
-88 143 -297 -15 -378 -66 -34 -122 -33 -196 4 -85 42 -131 150 -104 247 13
51 72 119 118 139 l32 13 0 184 0 184 -145 146 c-80 80 -148 146 -152 146 -4
0 -38 -30 -75 -67 l-68 -67 0 -63 c0 -61 1 -63 33 -76 36 -16 93 -76 109 -116
13 -33 13 -128 0 -162 -36 -93 -149 -151 -250 -128 -163 36 -225 228 -113 353
20 21 51 45 69 53 l32 13 0 83 0 82 430 430 430 430 0 457 0 458 -190 0 -190
0 0 -418 0 -417 -425 -425 -425 -425 0 -477 c0 -427 2 -478 16 -478 8 0 39
-24 68 -53 43 -42 56 -63 64 -103 23 -107 -40 -220 -144 -254 -56 -19 -140 -7
-188 27 -48 33 -96 119 -96 171 0 85 58 179 125 203 l35 13 0 495 0 495 241
242 241 242 -84 79 c-45 44 -115 109 -155 146 l-72 67 -35 -15 c-49 -21 -113
-18 -166 6 -60 27 -79 45 -106 104 -53 113 -7 238 105 288 111 49 233 2 286
-109 21 -44 24 -129 5 -163 -12 -23 -5 -30 125 -155 76 -72 148 -138 161 -146
23 -14 27 -11 164 125 l140 140 0 397 0 398 -1275 0 -1275 0 0 55 0 55 390 0
c215 0 390 4 390 9 0 4 -26 26 -57 49 -66 46 -175 156 -220 222 -49 72 -91
163 -119 257 -23 77 -27 107 -28 233 -1 120 3 159 22 231 l22 85 -35 76 c-49
108 -66 177 -72 305 -6 123 3 193 43 314 63 194 225 376 418 469 l83 40 7 78
c17 212 105 393 270 558 146 146 319 237 546 287 115 25 341 29 467 8 l83 -13
55 50 c146 134 355 235 559 271 33 6 62 13 64 16 9 9 223 5 261 -4z"/>
<path d="M4765 8644 c-147 -22 -269 -62 -377 -125 -77 -45 -176 -119 -177
-132 -1 -4 24 -18 54 -31 133 -60 288 -182 390 -309 67 -84 162 -259 190 -352
25 -81 45 -174 45 -205 0 -24 6 -30 34 -40 40 -13 101 -77 122 -126 21 -50 18
-140 -7 -190 -45 -94 -154 -147 -255 -125 -137 31 -213 165 -172 302 15 52 67
111 117 134 49 22 52 41 22 156 -88 342 -340 601 -686 706 -85 25 -101 27
-280 27 -173 -1 -199 -3 -288 -27 -373 -100 -614 -359 -672 -722 l-6 -40 153
0 c168 0 237 -13 356 -66 198 -89 376 -292 446 -507 21 -66 22 -67 61 -73 121
-18 205 -113 205 -231 -1 -129 -101 -230 -229 -230 -139 0 -233 95 -232 234 0
65 23 119 73 168 l32 33 -28 81 c-15 44 -44 108 -64 141 -49 80 -172 201 -252
248 -116 67 -278 104 -405 93 -409 -35 -700 -387 -655 -790 12 -102 29 -155
82 -258 30 -58 37 -81 30 -95 -5 -10 -20 -58 -32 -107 -104 -418 153 -837 579
-943 60 -15 268 -17 2381 -20 1338 -2 2364 0 2430 6 196 15 344 79 481 208
133 125 209 271 235 449 36 240 -34 462 -199 640 -132 142 -311 231 -495 247
l-54 4 -25 -41 c-87 -141 -266 -159 -374 -39 -48 53 -63 101 -56 176 13 142
153 236 293 198 56 -15 128 -81 149 -135 l17 -44 76 -7 c208 -19 442 -143 577
-305 54 -65 111 -150 130 -195 23 -56 35 -31 35 75 0 378 -192 704 -521 884
-255 139 -590 153 -854 34 -238 -107 -426 -302 -521 -542 -36 -90 -64 -212
-64 -280 0 -70 -5 -76 -66 -76 l-54 0 0 51 c0 67 35 236 66 324 63 175 198
363 346 480 85 67 236 150 333 183 72 24 202 52 245 52 18 0 30 5 30 13 0 21
-105 143 -162 188 -213 168 -534 199 -768 73 -215 -117 -357 -326 -379 -559
l-6 -70 -59 -3 -59 -3 7 72 c30 302 217 568 482 685 112 50 200 68 331 68 68
1 123 5 123 10 0 4 -23 36 -52 70 -156 185 -326 290 -554 342 -102 23 -318 24
-419 0 -82 -18 -181 -54 -216 -77 l-24 -17 32 -43 c53 -71 122 -202 153 -291
16 -46 30 -88 30 -95 0 -12 -97 -39 -107 -30 -3 4 -16 38 -29 77 -50 147 -133
277 -258 402 -101 101 -283 199 -441 238 -87 21 -269 34 -340 24z"/>
<path d="M4770 7333 c-66 -45 -72 -129 -14 -184 39 -37 112 -34 153 5 39 38
48 83 26 130 -29 62 -111 86 -165 49z"/>
<path d="M7463 6963 c-13 -3 -36 -17 -52 -33 -93 -93 13 -242 132 -185 37 17
67 65 67 107 0 28 -33 83 -57 96 -26 13 -64 19 -90 15z"/>
<path d="M3785 6782 c-60 -14 -101 -76 -89 -137 21 -112 184 -122 221 -12 28
84 -47 170 -132 149z"/>
<path d="M3578 4515 c-34 -19 -48 -44 -48 -84 0 -65 37 -101 103 -101 43 0 73
22 87 66 29 86 -64 163 -142 119z"/>
<path d="M7134 4511 c-44 -27 -60 -77 -40 -124 17 -42 41 -57 94 -57 29 0 46
7 66 26 19 20 26 37 26 66 0 50 -13 74 -50 93 -38 20 -58 19 -96 -4z"/>
<path d="M4049 3031 c-83 -83 15 -211 120 -157 48 25 63 83 36 136 -31 59
-107 69 -156 21z"/>
<path d="M6625 3030 c-43 -45 -42 -101 3 -141 44 -40 93 -40 133 0 63 64 20
171 -68 171 -31 0 -46 -7 -68 -30z"/>
<path d="M4611 2631 c-25 -24 -31 -37 -31 -71 0 -108 145 -142 186 -43 20 46
10 86 -28 118 -41 35 -87 33 -127 -4z"/>
<path d="M6072 2635 c-74 -62 -33 -175 63 -175 33 0 47 6 70 30 88 91 -37 226
-133 145z"/>
<path d="M5353 2415 c-27 -19 -46 -75 -38 -108 19 -72 109 -96 165 -42 63 60
23 165 -64 165 -23 0 -51 -7 -63 -15z"/>
<path d="M3590 2359 c-39 -15 -60 -49 -60 -97 0 -73 68 -116 138 -86 39 16 66
71 57 114 -12 55 -81 90 -135 69z"/>
<path d="M7142 2355 c-38 -17 -66 -71 -56 -110 3 -13 17 -35 30 -49 63 -62
164 -21 164 66 0 52 -15 77 -55 94 -41 17 -42 17 -83 -1z"/>
</g>
</svg>
